<svg xmlns="http://www.w3.org/2000/svg" xmlns:xlink="http://www.w3.org/1999/xlink" width="102" height="102" viewBox="0 0 102 102">
  <defs>
    <style>
      .cls-1 {
        fill-rule: evenodd;
        filter: url(#filter);
      }
    </style>
    <filter id="filter" x="1" y="1" width="100" height="100" filterUnits="userSpaceOnUse">
      <feFlood result="flood" flood-color="#c2c2c2"/>
      <feComposite result="composite" operator="in" in2="SourceGraphic"/>
      <feBlend result="blend" in2="SourceGraphic"/>
    </filter>
  </defs>
  <path id="椭圆_17_拷贝" data-name="椭圆 17 拷贝" class="cls-1" d="M51,1A50,50,0,1,1,1,51,50,50,0,0,1,51,1ZM67.668,47c-1.46,5.528-1.032,8.625-4.971,10-3.037,1.06-2.832,9.307.994,12,8.1,5.7,21.349,3.054,25.973,8.713a46.987,46.987,0,0,1-77.328,0C16.959,72.054,30.207,74.7,38.308,69c3.826-2.693,4.031-10.94.994-12-3.939-1.375-3.511-4.472-4.971-10-2.589.265-5.814-10.172-.994-9C29.173,25.75,36.816,16,51,16s21.827,9.75,17.662,22C73.482,36.828,70.257,47.264,67.668,47ZM51,81a2,2,0,1,0,2,2A2,2,0,0,0,51,81Zm0,9a2,2,0,1,0,2,2A2,2,0,0,0,51,90Z"/>
</svg>
