<svg xmlns="http://www.w3.org/2000/svg" xmlns:xlink="http://www.w3.org/1999/xlink" width="36" height="36" viewBox="0 0 36 36">
  <defs>
    <style>
      .cls-1 {
        fill: #fff;
        fill-rule: evenodd;
        filter: url(#filter);
      }
    </style>
    <filter id="filter" x="7" y="7" width="36" height="36" filterUnits="userSpaceOnUse">
      <feFlood result="flood" flood-color="#fc5c53"/>
      <feComposite result="composite" operator="in" in2="SourceGraphic"/>
      <feBlend result="blend" in2="SourceGraphic"/>
    </filter>
  </defs>
  <path id="矩形_1" data-name="矩形 1" class="cls-1" d="M25,43A18,18,0,1,1,43,25,18,18,0,0,1,25,43Zm0-3a14.946,14.946,0,0,0,11.158-5H35.83C33.9,32.637,29.784,31,25,31s-8.9,1.637-10.83,4H13.842A14.946,14.946,0,0,0,25,40Zm0-30A14.985,14.985,0,0,0,12.764,33.657C15.147,30.884,19.723,29,25,29s9.853,1.884,12.236,4.657A14.985,14.985,0,0,0,25,10Zm0,16a6,6,0,1,1,6-6A6,6,0,0,1,25,26Zm0-10a4,4,0,1,0,4,4A4,4,0,0,0,25,16Z" transform="translate(-7 -7)"/>
</svg>
