<svg xmlns="http://www.w3.org/2000/svg" xmlns:xlink="http://www.w3.org/1999/xlink" width="32" height="32" viewBox="0 0 32 32">
  <defs>
    <style>
      .cls-1 {
        fill: #f0f1f2;
        fill-rule: evenodd;
        filter: url(#filter);
      }
    </style>
    <filter id="filter" x="1" y="1" width="30" height="30" filterUnits="userSpaceOnUse">
      <feFlood result="flood" flood-color="#82848a"/>
      <feComposite result="composite" operator="in" in2="SourceGraphic"/>
      <feBlend result="blend" in2="SourceGraphic"/>
    </filter>
  </defs>
  <path id="xiangqingpage_bianji" class="cls-1" d="M25,31H7a6,6,0,0,1-6-6V7A6,6,0,0,1,7,1H17V3H7A4,4,0,0,0,3,7V25a4,4,0,0,0,4,4H25a4,4,0,0,0,4-4V15h2V25A6,6,0,0,1,25,31ZM18.071,18.105a2.973,2.973,0,0,1-3.679.415l-2.748,2.747a1,1,0,1,1-1.414-1.414l2.921-2.921a2.966,2.966,0,0,1,.71-3.037L25.894,1.863a2.977,2.977,0,0,1,4.21,4.21ZM28.7,3.266a0.992,0.992,0,0,0-1.4,0L15.265,15.3a0.992,0.992,0,0,0,1.4,1.4L28.7,4.669A0.992,0.992,0,0,0,28.7,3.266Z"/>
</svg>
