<svg id="btn_rili_right" xmlns="http://www.w3.org/2000/svg" xmlns:xlink="http://www.w3.org/1999/xlink" width="34" height="34" viewBox="0 0 34 34">
  <defs>
    <style>
      .cls-1 {
        opacity: 0;
      }

      .cls-2 {
        fill: #f0f1f2;
        fill-rule: evenodd;
        filter: url(#filter);
      }
    </style>
    <filter id="filter" x="1" y="1" width="34" height="34" filterUnits="userSpaceOnUse">
      <feFlood result="flood" flood-color="#d6d6d6"/>
      <feComposite result="composite" operator="in" in2="SourceGraphic"/>
      <feBlend result="blend" in2="SourceGraphic"/>
    </filter>
  </defs>
  <rect id="矩形_2" data-name="矩形 2" class="cls-1" width="34" height="34"/>
  <path id="btn_rili_right-2" data-name="btn_rili_right" class="cls-2" d="M31,35H5a4,4,0,0,1-4-4V5A4,4,0,0,1,5,1H31a4,4,0,0,1,4,4V31A4,4,0,0,1,31,35ZM24.573,16.444L15.545,7.426a1.472,1.472,0,0,0-2.083,2.081l8.487,8.477-8.487,8.477a1.472,1.472,0,0,0,2.083,2.081l9.028-9.018a1.464,1.464,0,0,0,.334-1.54A1.465,1.465,0,0,0,24.573,16.444Z" transform="translate(-1 -1)"/>
</svg>
