<svg xmlns="http://www.w3.org/2000/svg" xmlns:xlink="http://www.w3.org/1999/xlink" width="32" height="32" viewBox="0 0 32 32">
  <defs>
    <style>
      .cls-1 {
        fill: #fff;
        fill-rule: evenodd;
        filter: url(#filter);
      }
    </style>
    <filter id="filter" x="1" y="1" width="30" height="30" filterUnits="userSpaceOnUse">
      <feFlood result="flood" flood-color="#82848a"/>
      <feComposite result="composite" operator="in" in2="SourceGraphic"/>
      <feBlend result="blend" in2="SourceGraphic"/>
    </filter>
  </defs>
  <path id="圆角矩形_10_拷贝" data-name="圆角矩形 10 拷贝" class="cls-1" d="M29.173,11.3A13.9,13.9,0,0,1,26.166,25.6l2.684,3.977a0.88,0.88,0,0,1-.408,1.3,1.217,1.217,0,0,1-1.516-.348l-2.352-3.484a13.939,13.939,0,0,1-17.151,0L5.072,30.533a1.221,1.221,0,0,1-1.519.348,0.88,0.88,0,0,1-.406-1.3l2.685-3.977A13.9,13.9,0,0,1,2.824,11.3,5.992,5.992,0,1,1,11.3,2.826a13.787,13.787,0,0,1,9.4,0A5.992,5.992,0,1,1,29.173,11.3ZM7,3A3.994,3.994,0,0,0,3.717,9.279,14.062,14.062,0,0,1,9.278,3.718,3.975,3.975,0,0,0,7,3Zm9,1A12,12,0,1,0,28,16,12,12,0,0,0,16,4Zm9-1a3.974,3.974,0,0,0-2.279.719A14.062,14.062,0,0,1,28.28,9.279,3.994,3.994,0,0,0,25,3ZM21,17H17v4a1,1,0,1,1-2,0V17H11a1,1,0,1,1,0-2h4V11a1,1,0,1,1,2,0v4h4A1,1,0,0,1,21,17Z"/>
</svg>
