<svg xmlns="http://www.w3.org/2000/svg" xmlns:xlink="http://www.w3.org/1999/xlink" width="60" height="60" viewBox="0 0 60 60">
  <defs>
    <style>
      .cls-1, .cls-2 {
        fill: #f0f1f2;
        fill-rule: evenodd;
      }

      .cls-1 {
        filter: url(#filter);
      }

      .cls-2 {
        filter: url(#filter-2);
      }
    </style>
    <filter id="filter" x="2" y="7" width="40" height="36" filterUnits="userSpaceOnUse">
      <feFlood result="flood" flood-color="#3eb135"/>
      <feComposite result="composite" operator="in" in2="SourceGraphic"/>
      <feBlend result="blend" in2="SourceGraphic"/>
    </filter>
    <filter id="filter-2" x="24" y="21" width="34" height="32" filterUnits="userSpaceOnUse">
      <feFlood result="flood" flood-color="#3eb135"/>
      <feComposite result="composite" operator="in" in2="SourceGraphic"/>
      <feBlend result="blend" in2="SourceGraphic"/>
    </filter>
  </defs>
  <path id="椭圆_6_拷贝" data-name="椭圆 6 拷贝" class="cls-1" d="M23,41a29.484,29.484,0,0,1-8.5-1.248L8,43l2.255-5.261C5.26,34.648,2,29.653,2,24,2,14.611,10.954,7,22,7c8.033,0,15.019,3.793,20,12C35.168,18.486,18.744,24.571,23,41ZM15,15a3,3,0,1,1-3,3A3,3,0,0,1,15,15Zm14,0a3,3,0,1,1-3,3A3,3,0,0,1,29,15Z"/>
  <path id="椭圆_6_拷贝_3" data-name="椭圆 6 拷贝 3" class="cls-2" d="M51.507,47.776L53,53l-5.5-3.142A18.911,18.911,0,0,1,41,51c-9.389,0-17-6.716-17-15s7.611-15,17-15,17,6.716,17,15A14.408,14.408,0,0,1,51.507,47.776ZM35.5,30A2.5,2.5,0,1,1,33,32.5,2.5,2.5,0,0,1,35.5,30Zm11,0A2.5,2.5,0,1,1,44,32.5,2.5,2.5,0,0,1,46.5,30Z"/>
</svg>
