<svg xmlns="http://www.w3.org/2000/svg" xmlns:xlink="http://www.w3.org/1999/xlink" width="60" height="60" viewBox="0 0 60 60">
  <defs>
    <style>
      .cls-1 {
        fill: #f0f1f2;
        fill-rule: evenodd;
        filter: url(#filter);
      }
    </style>
    <filter id="filter" x="6.938" y="4" width="46.063" height="51" filterUnits="userSpaceOnUse">
      <feFlood result="flood" flood-color="#4dafea"/>
      <feComposite result="composite" operator="in" in2="SourceGraphic"/>
      <feBlend result="blend" in2="SourceGraphic"/>
    </filter>
  </defs>
  <path id="形状_2_拷贝" data-name="形状 2 拷贝" class="cls-1" d="M48.947,43.071c-1.662-1.169-2.992-2-2.992-2s-0.5,4.675-2.992,6.011c4.654,1.336,8.144,5.009,2.992,7.013s-13.63.5-15.956-3.005V51c-2.333,3.5-10.834,5-16,3s-1.666-5.666,3-7c-2.5-1.333-3-6-3-6s-1.333.834-3,2c-5.69,3.983-5.5-10.167,1-14-1.333-1.667-1.167-5.9,1-7C13,6.4,26.6,4,30,4S46.953,6.4,46.953,22.032c2.16,1.1,2.326,5.343,1,7.013C54.432,32.886,54.622,47.062,48.947,43.071Z"/>
</svg>
