<svg xmlns="http://www.w3.org/2000/svg" xmlns:xlink="http://www.w3.org/1999/xlink" width="60" height="60" viewBox="0 0 60 60">
  <defs>
    <style>
      .cls-1 {
        fill: #f0f1f2;
        fill-rule: evenodd;
        filter: url(#filter);
      }
    </style>
    <filter id="filter" x="9.688" y="4.844" width="40.125" height="50.156" filterUnits="userSpaceOnUse">
      <feFlood result="flood" flood-color="#2198f2"/>
      <feComposite result="composite" operator="in" in2="SourceGraphic"/>
      <feBlend result="blend" in2="SourceGraphic"/>
    </filter>
  </defs>
  <path id="形状_2" data-name="形状 2" class="cls-1" d="M11,5c4.4,1.885,24,10.544,32,13,6.758,2.075,7.875,5.186,6.032,7.977s-8.848,14.14-8.848,14.14h7.373L35.758,55,38,45H33l3-9s-7.23,2.447-9,2-6.332-4.23-7.461-5.325C19.061,32.211,18.87,31.451,22,31a30.507,30.507,0,0,0,7-1,64.1,64.1,0,0,1-10.2-1.047c-1.158-.319-6.441-6.742-5.9-8.93,0.21-.85,2.843.106,4.423,0.744S27.155,23.212,30,23c-5.266-1.17-15.938-5.635-17.1-7.442S7.523,3.511,11,5Z"/>
</svg>
