<svg xmlns="http://www.w3.org/2000/svg" xmlns:xlink="http://www.w3.org/1999/xlink" width="32" height="32" viewBox="0 0 32 32">
  <defs>
    <style>
      .cls-1 {
        fill: #f0f1f2;
        fill-rule: evenodd;
        filter: url(#filter);
      }
    </style>
    <filter id="filter" x="1" y="1" width="30" height="30" filterUnits="userSpaceOnUse">
      <feFlood result="flood" flood-color="#82848a"/>
      <feComposite result="composite" operator="in" in2="SourceGraphic"/>
      <feBlend result="blend" in2="SourceGraphic"/>
    </filter>
  </defs>
  <path id="xiangqingpage_icon_delete" class="cls-1" d="M30,7H28V25a6,6,0,0,1-6,6H10a6,6,0,0,1-6-6V7H2A1,1,0,0,1,2,5H30A1,1,0,0,1,30,7ZM6,8V25a4,4,0,0,0,4,4H22a4,4,0,0,0,4-4V8a3.8,3.8,0,0,0-.141-1H6.139A3.8,3.8,0,0,0,6,8ZM20,24a1,1,0,0,1-1-1V11a1,1,0,0,1,2,0V23A1,1,0,0,1,20,24Zm-8,0a1,1,0,0,1-1-1V11a1,1,0,1,1,2,0V23A1,1,0,0,1,12,24ZM19,3H13a1,1,0,0,1,0-2h6A1,1,0,0,1,19,3Z"/>
</svg>
