<svg xmlns="http://www.w3.org/2000/svg" xmlns:xlink="http://www.w3.org/1999/xlink" width="34" height="34" viewBox="0 0 34 34">
  <defs>
    <style>
      .cls-1 {
        fill: #f0f1f2;
        fill-rule: evenodd;
        filter: url(#filter);
      }
    </style>
    <filter id="filter" x="1" y="1" width="32" height="32" filterUnits="userSpaceOnUse">
      <feFlood result="flood" flood-color="#c4c4c4"/>
      <feComposite result="composite" operator="in" in2="SourceGraphic"/>
      <feBlend result="blend" in2="SourceGraphic"/>
    </filter>
  </defs>
  <path id="圆角矩形_1284_拷贝_2" data-name="圆角矩形 1284 拷贝 2" class="cls-1" d="M3,9H7a2,2,0,0,1,2,2V31a2,2,0,0,1-2,2H3a2,2,0,0,1-2-2V11A2,2,0,0,1,3,9ZM15,1h4a2,2,0,0,1,2,2V31a2,2,0,0,1-2,2H15a2,2,0,0,1-2-2V3A2,2,0,0,1,15,1ZM27,15h4a2,2,0,0,1,2,2V31a2,2,0,0,1-2,2H27a2,2,0,0,1-2-2V17A2,2,0,0,1,27,15Z"/>
</svg>
