<svg xmlns="http://www.w3.org/2000/svg" xmlns:xlink="http://www.w3.org/1999/xlink" width="35.875" height="35.875" viewBox="0 0 35.875 35.875">
  <defs>
    <style>
      .cls-1 {
        fill: #f0f1f2;
        fill-rule: evenodd;
        filter: url(#filter);
      }
    </style>
    <filter id="filter" x="841" y="381" width="35.875" height="35.875" filterUnits="userSpaceOnUse">
      <feFlood result="flood" flood-color="#fc5c53"/>
      <feComposite result="composite" operator="in" in2="SourceGraphic"/>
      <feBlend result="blend" in2="SourceGraphic"/>
    </filter>
  </defs>
  <path id="icon_chazhao" class="cls-1" d="M876.409,416.41a1.5,1.5,0,0,1-2.121,0l-7.941-7.941a15.5,15.5,0,1,1,2.121-2.121l7.941,7.94A1.5,1.5,0,0,1,876.409,416.41ZM869,396.5A12.5,12.5,0,1,0,856.5,409,12.5,12.5,0,0,0,869,396.5Zm-5-.5h-0.048A7.463,7.463,0,0,0,857,389.05V389a1,1,0,0,1,0-2,0.927,0.927,0,0,1,.247.05,9.475,9.475,0,0,1,8.705,8.712A0.958,0.958,0,0,1,866,396,1,1,0,0,1,864,396Z" transform="translate(-841 -381)"/>
</svg>
