<svg xmlns="http://www.w3.org/2000/svg" xmlns:xlink="http://www.w3.org/1999/xlink" width="34" height="34" viewBox="0 0 34 34">
  <defs>
    <style>
      .cls-1 {
        fill: #f0f1f2;
        fill-rule: evenodd;
        filter: url(#filter);
      }
    </style>
    <filter id="filter" x="3" y="1" width="28" height="32" filterUnits="userSpaceOnUse">
      <feFlood result="flood" flood-color="#c4c4c4"/>
      <feComposite result="composite" operator="in" in2="SourceGraphic"/>
      <feBlend result="blend" in2="SourceGraphic"/>
    </filter>
  </defs>
  <path id="icon_xiangmumingcheng" class="cls-1" d="M6,1H28a3,3,0,0,1,3,3V30a3,3,0,0,1-3,3H6a3,3,0,0,1-3-3V4A3,3,0,0,1,6,1Zm6,5a4,4,0,1,1-4,4A4,4,0,0,1,12,6ZM9.5,17h15a1.5,1.5,0,0,1,0,3H9.5A1.5,1.5,0,0,1,9.5,17Zm0,6h15a1.5,1.5,0,0,1,0,3H9.5A1.5,1.5,0,0,1,9.5,23Z"/>
</svg>
