<svg xmlns="http://www.w3.org/2000/svg" xmlns:xlink="http://www.w3.org/1999/xlink" width="32" height="32" viewBox="0 0 32 32">
  <defs>
    <style>
      .cls-1 {
        fill: #f0f1f2;
        fill-rule: evenodd;
        filter: url(#filter);
      }
    </style>
    <filter id="filter" x="1" y="1" width="30" height="30" filterUnits="userSpaceOnUse">
      <feFlood result="flood" flood-color="#82848a"/>
      <feComposite result="composite" operator="in" in2="SourceGraphic"/>
      <feBlend result="blend" in2="SourceGraphic"/>
    </filter>
  </defs>
  <path id="xiangqingpage_icon_fenxiang" class="cls-1" d="M25,23a5.981,5.981,0,0,1-5.37-3.373l-7.738,4.8a5.528,5.528,0,1,1-.78-1.909l7.948-4.931A5.867,5.867,0,0,1,19,17a5.945,5.945,0,0,1,.21-1.494l-8.627-5.353A5.478,5.478,0,1,1,12,6.5a5.456,5.456,0,0,1-.362,1.915l8.4,5.213A6,6,0,1,1,25,23ZM6.5,22A3.5,3.5,0,1,0,10,25.5,3.5,3.5,0,0,0,6.5,22Zm0-19A3.5,3.5,0,1,0,10,6.5,3.5,3.5,0,0,0,6.5,3ZM25,13a4,4,0,1,0,4,4A4,4,0,0,0,25,13Z"/>
</svg>
