<svg xmlns="http://www.w3.org/2000/svg" xmlns:xlink="http://www.w3.org/1999/xlink" width="36" height="31" viewBox="0 0 36 31">
  <defs>
    <style>
      .cls-1 {
        fill: #f0f1f2;
        fill-rule: evenodd;
        filter: url(#filter);
      }
    </style>
    <filter id="filter" x="754" y="383" width="36" height="31" filterUnits="userSpaceOnUse">
      <feFlood result="flood" flood-color="#fc5c53"/>
      <feComposite result="composite" operator="in" in2="SourceGraphic"/>
      <feBlend result="blend" in2="SourceGraphic"/>
    </filter>
  </defs>
  <path id="icon_liebiaomoshi" class="cls-1" d="M755,383h34a1,1,0,0,1,1,1v1a1,1,0,0,1-1,1H755a1,1,0,0,1-1-1v-1A1,1,0,0,1,755,383Zm0,14h34a1,1,0,0,1,1,1v1a1,1,0,0,1-1,1H755a1,1,0,0,1-1-1v-1A1,1,0,0,1,755,397Zm0,14h34a1,1,0,0,1,1,1v1a1,1,0,0,1-1,1H755a1,1,0,0,1-1-1v-1A1,1,0,0,1,755,411Z" transform="translate(-754 -383)"/>
</svg>
